Coordinates
version=1
nRows=11
nColumns=40
inDegrees=yes

Units are S.I. units (second, meters, Newtons, ...)
If the header above contains a line with 'inDegrees', this indicates whether rotational values are in degrees (yes) or radians (no).

endheader
time	pelvis_tilt	pelvis_list	pelvis_rotation	pelvis_tx	pelvis_ty	pelvis_tz	hip_flexion_r	hip_adduction_r	hip_rotation_r	knee_angle_r	knee_angle_r_beta	ankle_angle_r	subtalar_angle_r	mtp_angle_r	hip_flexion_l	hip_adduction_l	hip_rotation_l	knee_angle_l	knee_angle_l_beta	ankle_angle_l	subtalar_angle_l	mtp_angle_l	lumbar_extension	lumbar_bending	lumbar_rotation	arm_flex_r	arm_add_r	arm_rot_r	elbow_flex_r	pro_sup_r	wrist_flex_r	wrist_dev_r	arm_flex_l	arm_add_l	arm_rot_l	elbow_flex_l	pro_sup_l	wrist_flex_l	wrist_dev_l
      8.11500000	     -8.47823797	      1.43687513	   -176.25821384	      0.25694859	      0.90571963	     -0.59591777	     -3.48297953	     -8.18152051	    -20.24109601	      4.82656208	      0.08423940	     -1.96761634	      0.00000000	      0.00000000	      0.22483344	    -13.73620327	    -17.00236062	      9.69532586	      0.16921536	     -0.56383077	      0.00000000	      0.00000000	    -20.75605089	     -1.67646709	      3.56773027	      8.97398393	    -14.72839842	     27.40481147	     21.41477451	     83.21612425	      0.00000000	      0.00000000	     21.73059912	    -11.71451429	     57.19142283	     12.18912120	     67.51260718	      0.00000000	      0.00000000
      8.12000000	     -8.62042973	      1.22822677	   -176.46842326	      0.25641147	      0.90600667	     -0.59619064	     -3.78150379	     -8.37813482	    -19.98564926	      4.60320341	      0.08034106	     -1.95899225	      0.00000000	      0.00000000	     -0.26932911	    -13.44702139	    -17.18804601	      9.26972176	      0.16178717	     -0.70482840	      0.00000000	      0.00000000	    -20.56833342	     -1.97821963	      3.65759018	      8.74598168	    -14.75624906	     27.38794653	     21.59256040	     83.46500244	      0.00000000	      0.00000000	     21.55412711	    -12.05113735	     58.18785661	     12.63056745	     66.23948799	      0.00000000	      0.00000000
      8.12500000	     -8.77930540	      1.08348837	   -176.60432508	      0.25579050	      0.90628681	     -0.59635118	     -4.08097253	     -8.49859965	    -19.92245926	      4.41662698	      0.07708468	     -1.94524758	      0.00000000	      0.00000000	     -0.74274090	    -13.23978494	    -17.32190915	      8.86606458	      0.15474202	     -0.86682206	      0.00000000	      0.00000000	    -20.39764957	     -2.15220454	      3.65248506	      8.53031814	    -14.64838617	     26.91937737	     21.67526624	     83.37556442	      0.00000000	      0.00000000	     21.35604682	    -12.01740382	     57.81549607	     12.50217737	     66.37566179	      0.00000000	      0.00000000
      8.13000000	     -8.87450865	      0.99430776	   -176.68779454	      0.25521281	      0.90645652	     -0.59644304	     -4.31321677	     -8.57152762	    -19.88733234	      4.25418274	      0.07424950	     -1.93848690	      0.00000000	      0.00000000	     -1.06366526	    -13.10086749	    -17.39531994	      8.59747032	      0.15005416	     -0.95245091	      0.00000000	      0.00000000	    -20.16328060	     -2.26955792	      3.65181585	      8.27282903	    -14.67956495	     26.72434397	     21.91153761	     83.64151009	      0.00000000	      0.00000000	     21.18782575	    -12.06811210	     58.05694682	     12.49229740	     66.05970062	      0.00000000	      0.00000000
      8.13500000	     -9.03580825	      0.96309834	   -176.75168257	      0.25471507	      0.90667509	     -0.59651572	     -4.61213096	     -8.57235762	    -19.89493456	      4.06745706	      0.07099052	     -1.99337898	      0.00000000	      0.00000000	     -1.42158440	    -13.04293168	    -17.48092871	      8.36638841	      0.14602102	     -0.93877035	      0.00000000	      0.00000000	    -20.02006051	     -2.30541034	      3.64513047	      8.07698595	    -14.63072935	     26.37295604	     21.97505428	     83.88757095	      0.00000000	      0.00000000	     20.97564818	    -12.07553157	     57.75554073	     12.53374726	     65.45749373	      0.00000000	      0.00000000
      8.14000000	     -9.15733663	      0.94197080	   -176.72177865	      0.25417140	      0.90683884	     -0.59645389	     -4.88435928	     -8.55950594	    -19.98955154	      3.89299565	      0.06794559	     -2.07153475	      0.00000000	      0.00000000	     -1.68297051	    -12.99504134	    -17.47102995	      8.17981072	      0.14276463	     -1.02384268	      0.00000000	      0.00000000	    -19.83205715	     -2.30265370	      3.49626088	      7.84343090	    -14.59367668	     26.10586351	     22.15641231	     83.38816283	      0.00000000	      0.00000000	     20.74773024	    -12.21198768	     57.46962705	     12.63578945	     66.59947258	      0.00000000	      0.00000000
      8.14500000	     -9.24159641	      0.96996746	   -176.73919530	      0.25374607	      0.90694907	     -0.59655032	     -5.08504533	     -8.49695513	    -20.01334284	      3.73866695	      0.06525205	     -2.08622507	      0.00000000	      0.00000000	     -1.89397368	    -13.01282879	    -17.43205613	      8.02173109	      0.14000562	     -1.02948183	      0.00000000	      0.00000000	    -19.61446689	     -2.27960179	      3.48689596	      7.61757933	    -14.63604593	     25.94605312	     22.35272492	     83.69085759	      0.00000000	      0.00000000	     20.57540222	    -12.25531003	     57.36777123	     12.77373792	     66.38426794	      0.00000000	      0.00000000
      8.15000000	     -9.42078697	      1.00659114	   -176.80129708	      0.25320930	      0.90710874	     -0.59663235	     -5.41384122	     -8.41583516	    -19.97195068	      3.50588881	      0.06118930	     -2.23281656	      0.00000000	      0.00000000	     -2.22132739	    -13.05080282	    -17.60311467	      7.88968739	      0.13770102	     -1.03145932	      0.00000000	      0.00000000	    -19.49135142	     -2.23993932	      3.51368244	      7.37695404	    -14.44214843	     25.03015725	     22.38504502	     83.25170539	      0.00000000	      0.00000000	     20.18837462	    -12.27931179	     56.93309678	     13.09841957	     61.59564292	      0.00000000	      0.00000000
      8.15500000	     -9.06997787	      1.05464953	   -176.44227135	      0.25239152	      0.90660782	     -0.59618057	     -5.14828447	     -8.38175286	    -20.56379123	      3.59989874	      0.06283009	     -1.82705342	      0.00000000	      0.00000000	     -1.71036727	    -13.11109630	    -17.16567598	      8.05360572	      0.14056194	     -0.68309584	      0.00000000	      0.00000000	    -18.76072991	     -2.09097568	      3.06436341	      6.97522072	    -14.41355154	     24.87300797	     22.64437405	     82.30502679	      0.00000000	      0.00000000	     19.71149891	    -12.44908507	     56.47026636	     13.45918027	     61.23988969	      0.00000000	      0.00000000
      8.16000000	     -9.79284875	      0.96015359	   -176.65739455	      0.25211644	      0.90751203	     -0.59631727	     -6.01715741	     -8.42213970	    -20.33178791	      3.39345886	      0.05922703	     -2.17987956	      0.00000000	      0.00000000	     -2.79818258	    -12.97903362	    -17.55465461	      7.64271951	      0.13339062	     -1.06839536	      0.00000000	      0.00000000	    -19.30457682	     -2.19187031	      3.25002146	      6.92905949	    -14.54186775	     24.79428641	     22.78988305	     83.50942410	      0.00000000	      0.00000000	     19.69039924	    -11.99213966	     54.53945383	     12.77305685	     63.07233326	      0.00000000	      0.00000000
      8.16500000	    -10.03823844	      1.00189131	   -176.58957710	      0.25164140	      0.90779421	     -0.59615021	     -6.35645013	     -8.35768148	    -20.47115347	      3.36494070	      0.05872929	     -2.20732842	      0.00000000	      0.00000000	     -3.11135929	    -13.03663984	    -17.55526917	      7.58992705	      0.13246922	     -1.08264347	      0.00000000	      0.00000000	    -19.28354830	     -2.09764956	      3.23374128	      6.66445099	    -14.35313713	     23.62973101	     22.79000332	     83.73354801	      0.00000000	      0.00000000	     19.60063798	    -12.17396904	     54.58429046	     13.01129450	     65.67664121	      0.00000000	      0.00000000
